# xmcd CD database file
#
# Track frame offsets:
#	150
#	12143
#	23835
#	43305
#	60513
#	72875
#	85860
#	110708
#	146493
#	159865
#	176685
#	189136
#	212917
#	226110
#	240723
#	257779
#	269442
#	292538
#	311114
#	328745
#
# Disc length: 4610 seconds
#
# Revision: 0
# Processed by: cddbd v1.5.1PL2 Copyright (c) Steve Scherf et al.
# Submitted via: Feurio! 1.68 - http://www.feurio.com
#
DISCID=14120014
DTITLE=Canned Heat - Future Blues - Reheated
DYEAR=1900
DGENRE=
TTITLE0=Sugar Bee
TTITLE1=Shake It And Break It
TTITLE2=That's All Right, Mama
TTITLE3=My Time Ain't Long
TTITLE4=Skat
TTITLE5=Let's Work Together
TTITLE6=London Blues
TTITLE7=So Sad (The World's In A Tangle)
TTITLE8=Future Blues
TTITLE9=Looking For The Party
TTITLE10=Drifting
TTITLE11=I'm Watching You
TTITLE12=Bullfrog Blues
TTITLE13=Mercury Blues
TTITLE14=Gunstreet Girl
TTITLE15=I Love To Rock and Roll
TTITLE16=My Baby Is Fine
TTITLE17=Take Me To The River
TTITLE18=Red Headed Woman
TTITLE19=Built For Comfort
EXTD=
EXTT0=
EXTT1=
EXTT2=
EXTT3=
EXTT4=
EXTT5=
EXTT6=
EXTT7=
EXTT8=
EXTT9=
EXTT10=
EXTT11=
EXTT12=
EXTT13=
EXTT14=
EXTT15=
EXTT16=
EXTT17=
EXTT18=
EXTT19=
PLAYORDER=
